<?xml version="1.0" standalone="no"?>
<!DOCTYPE svg PUBLIC "-//W3C//DTD SVG 20010904//EN"
 "http://www.w3.org/TR/2001/REC-SVG-20010904/DTD/svg10.dtd">
<svg version="1.0" xmlns="http://www.w3.org/2000/svg"
 width="260.000000pt" height="260.000000pt" viewBox="0 0 260.000000 260.000000"
 preserveAspectRatio="xMidYMid meet">
<metadata>
Created by potrace 1.14, written by Peter Selinger 2001-2017
</metadata>
<g transform="translate(0.000000,260.000000) scale(0.100000,-0.100000)"
fill="#000000" stroke="none">
<path d="M1266 2421 c-3 -5 -191 -440 -416 -967 -226 -528 -429 -989 -451
-1026 -72 -122 -109 -152 -217 -178 -48 -11 -52 -14 -52 -41 l0 -29 345 0 345
0 0 29 c0 28 -3 29 -52 36 -86 11 -145 34 -174 68 -44 52 -32 107 77 364 50
120 96 224 102 230 7 10 106 13 431 13 l423 0 87 -210 c123 -295 133 -362 67
-422 -22 -20 -49 -30 -105 -39 -74 -12 -76 -14 -76 -41 l0 -28 435 0 435 0 0
29 c0 27 -3 29 -47 36 -123 18 -202 85 -276 234 -23 47 -218 506 -432 1018
-380 908 -391 933 -417 933 -15 0 -29 -4 -32 -9z m134 -951 l178 -425 -370 -3
c-204 -1 -373 0 -375 2 -2 2 80 200 184 440 121 281 191 432 196 424 5 -7 89
-204 187 -438z"/>
</g>
</svg>
